<svg width="88" height="88" viewBox="0 0 88 88" fill="none" xmlns="http://www.w3.org/2000/svg">
<path d="M15.6751 28.9288L46.0677 15.8182L48.1095 20.5515L17.7169 33.6621L15.6751 28.9288Z" fill="#4EB9FF"/>
<path d="M15.6729 38.4499L17.7147 33.7166L47.7492 46.6726L45.7074 51.4059L15.6729 38.4499Z" fill="#4EB9FF"/>
<path d="M11.1719 44.8594C5.0117 44.8594 0 39.8477 0 33.6875C0 27.5273 5.0117 22.5156 11.1719 22.5156C17.332 22.5156 22.3438 27.5273 22.3438 33.6875C22.3438 39.8477 17.332 44.8594 11.1719 44.8594Z" fill="#8BB9FF"/>
<path d="M11.1719 22.5156V44.8594C17.332 44.8594 22.3438 39.8477 22.3438 33.6875C22.3438 27.5273 17.332 22.5156 11.1719 22.5156Z" fill="#2F73AB"/>
<path d="M51.0469 25.9531C45.8344 25.9531 41.5938 21.7125 41.5938 16.5C41.5938 11.2875 45.8344 7.04688 51.0469 7.04688C56.2593 7.04688 60.5 11.2875 60.5 16.5C60.5 21.7125 56.2593 25.9531 51.0469 25.9531Z" fill="#8BB9FF"/>
<path d="M51.0469 7.04688V25.9531C56.2593 25.9531 60.5 21.7125 60.5 16.5C60.5 11.2875 56.2593 7.04688 51.0469 7.04688Z" fill="#2F73AB"/>
<path d="M63.9375 78.375C75.803 78.375 85.4219 68.7561 85.4219 56.8906C85.4219 45.0251 75.803 35.4062 63.9375 35.4062C52.072 35.4062 42.4531 45.0251 42.4531 56.8906C42.4531 68.7561 52.072 78.375 63.9375 78.375Z" fill="#8BB9FF"/>
<path d="M85.4219 56.8906C85.4219 45.0251 75.8031 35.4062 63.9375 35.4062V78.375C75.8031 78.375 85.4219 68.7562 85.4219 56.8906Z" fill="#2F73AB"/>
<path d="M63.7933 58.61C56.0007 58.6856 49.7293 64.9531 49.3467 72.6586C53.1783 76.2059 58.3043 78.3749 63.9375 78.3749C69.574 78.3749 74.7026 76.2033 78.5348 72.6524C78.2344 64.8107 71.7246 58.5332 63.7933 58.61Z" fill="#FFE290"/>
<path d="M63.9375 58.6119V78.3746C69.574 78.3746 74.7025 76.2029 78.5348 72.652C78.2361 64.8582 71.8032 58.6122 63.9375 58.6119Z" fill="#FFCE47"/>
<path d="M63.9375 63.7656C58.725 63.7656 54.4844 59.525 54.4844 54.3125C54.4844 49.1 58.725 44.8594 63.9375 44.8594C69.15 44.8594 73.3906 49.1 73.3906 54.3125C73.3906 59.525 69.15 63.7656 63.9375 63.7656Z" fill="#FFF5D9"/>
<path d="M73.3906 54.3125C73.3906 49.1 69.15 44.8594 63.9375 44.8594V63.7656C69.15 63.7656 73.3906 59.525 73.3906 54.3125Z" fill="#FFBCA7"/>
<path d="M63.9375 80.9531C50.6694 80.9531 39.875 70.1587 39.875 56.8906C39.875 43.6226 50.6694 32.8281 63.9375 32.8281C77.2056 32.8281 88 43.6226 88 56.8906C88 70.1587 77.2056 80.9531 63.9375 80.9531ZM63.9375 37.9844C53.5126 37.9844 45.0312 46.4657 45.0312 56.8906C45.0312 67.3155 53.5126 75.7969 63.9375 75.7969C74.3624 75.7969 82.8438 67.3155 82.8438 56.8906C82.8438 46.4657 74.3624 37.9844 63.9375 37.9844Z" fill="#F4F4F6"/>
<path d="M82.8438 56.8906C82.8438 67.3155 74.3624 75.7969 63.9375 75.7969V80.9531C77.2056 80.9531 88 70.1587 88 56.8906C88 43.6226 77.2056 32.8281 63.9375 32.8281V37.9844C74.3624 37.9844 82.8438 46.4657 82.8438 56.8906Z" fill="#E2DFF4"/>
</svg>
