<svg width="85" height="85" viewBox="0 0 85 85" fill="none" xmlns="http://www.w3.org/2000/svg">
<path d="M85 51.0101V33.9899L78.3728 32.0634C77.6111 29.4399 76.5631 26.9108 75.2448 24.5154L78.5695 18.4654L66.5346 6.43028L60.4845 9.75524C58.0889 8.43691 55.56 7.38886 52.9364 6.62701L51.0101 0H42.5L22.5781 42.5L42.5 85H51.0101L52.9366 78.373C55.5601 77.6113 58.089 76.5631 60.4848 75.2448L66.5347 78.5694L78.5697 66.5344L75.2449 60.4845C76.5633 58.089 77.6113 55.56 78.373 52.9364L85 51.0101Z" fill="#2F73AB"/>
<path d="M33.9899 0L32.0634 6.62701C29.44 7.38869 26.9111 8.43691 24.5155 9.75524L18.4654 6.43045L6.43045 18.4656L9.75524 24.5155C8.43708 26.9111 7.38886 29.4402 6.62701 32.0636L0 33.99V51.0101L6.62701 52.9366C7.38869 55.5599 8.43691 58.089 9.75524 60.4846L6.43045 66.5346L18.4654 78.5695L24.5154 75.2449C26.9111 76.5632 29.44 77.6113 32.0636 78.3732L33.9899 85H42.5V0H33.9899Z" fill="#235C81"/>
<path d="M42.5001 12.6172L25.5474 42.5L54.9519 69.6635C65.2301 64.9332 72.3829 54.5361 72.3829 42.5C72.3829 26.0226 58.9774 12.6172 42.5001 12.6172Z" fill="#5A7587"/>
<path d="M42.5 12.6172C26.0226 12.6172 12.6172 26.0226 12.6172 42.5C12.6172 54.5363 19.7701 64.9334 30.0483 69.6635H42.5V12.6172Z" fill="#5A7587"/>
<path d="M65.7422 42.5C65.7422 29.6843 55.3158 19.2578 42.5 19.2578L29.3146 42.5L42.5 65.7422C55.3158 65.7422 65.7422 55.3157 65.7422 42.5Z" fill="#FFCE47"/>
<path d="M42.5 19.2578C29.6843 19.2578 19.2578 29.6843 19.2578 42.5C19.2578 55.3157 29.6843 65.7422 42.5 65.7422V19.2578Z" fill="#FFE290"/>
<path d="M48.192 35.1551L42.5 25.1942L37.5195 42.6258L48.192 35.1551Z" fill="#092A40"/>
<path d="M42.5 25.1942L36.8081 35.1551L42.5 42.6258V25.1942Z" fill="#235C81"/>
<path d="M35.0293 54.4546L54.9512 46.9838L48.192 35.1552H42.5L35.0293 54.4546Z" fill="#FFF5D9"/>
<path d="M42.5 35.1552H36.8082L30.0488 46.9839L42.5 54.4546V35.1552Z" fill="white"/>
<path d="M35.3319 59.6831L42.5 72.3826C46.9412 72.3826 51.1585 71.4073 54.9511 69.6618V46.9834H42.5L35.3319 59.6831Z" fill="#45A2E0"/>
<path d="M30.0488 46.9841V69.6623C33.8415 71.4078 38.0588 72.3831 42.5 72.3831V46.9841H30.0488Z" fill="#4EB9FF"/>
</svg>
