<svg width="87" height="87" viewBox="0 0 87 87" fill="none" xmlns="http://www.w3.org/2000/svg">
<g clip-path="url(#clip0)">
<path d="M74.154 28.0001H56.19V60.559H85.6226V45.9043L82.1899 34.0407C81.1552 30.4631 77.8783 28.0001 74.154 28.0001Z" fill="#4EB9FF"/>
<path d="M81.3254 45.7552L78.2662 35.1801C77.7388 33.3623 76.0479 32.09 74.154 32.09H60.2786V45.7552H81.3254Z" fill="#84DBFF"/>
<path d="M81.3292 45.7491H60.2715V32.084L81.3292 45.7491Z" fill="#CDD6E0"/>
<path d="M81.3254 45.7552L78.2662 35.1801C77.7388 33.3623 76.0479 32.09 74.154 32.09H60.2786L81.3254 45.7552Z" fill="#F2F2F2"/>
<path d="M5.43704 11.6546H50.7529C53.7542 11.6546 56.19 14.0885 56.19 17.0916V60.5572H0V17.0916C0 14.0887 2.43393 11.6546 5.43704 11.6546Z" fill="#FFD15C"/>
<path d="M36.827 11.6649V26.0312L34.7245 23.929L32.5208 26.1328L30.3188 23.929L28.1168 26.1328L25.9111 23.929L23.6802 26.1328L21.4799 23.929L19.3523 26.0567V11.6649H36.827Z" fill="#4EB9FF"/>
<path d="M87 60.5564V66.7003H0.0072937V60.5564H9.08716C11.2076 56.7505 15.2854 54.1769 19.9612 54.1769C24.6189 54.1769 28.6967 56.7505 30.8353 60.5564H60.0504C62.1709 56.7505 66.2288 54.1769 70.9047 54.1769C75.5805 54.1769 79.6401 56.7505 81.7787 60.5564H87Z" fill="#235C81"/>
<path d="M79.5874 66.6623C79.5874 71.4577 75.7 75.3452 70.9045 75.3452C66.109 75.3452 62.2251 71.4577 62.2251 66.6623C62.2251 61.8668 66.1107 57.9793 70.9045 57.9793C75.7018 57.9793 79.5874 61.8668 79.5874 66.6623Z" fill="#2F73AB"/>
<path d="M74.3951 66.6614C74.3951 68.588 72.8328 70.1484 70.9081 70.1484C68.9815 70.1484 67.4175 68.588 67.4175 66.6614C67.4175 64.7348 68.9798 63.1744 70.9081 63.1744C72.8328 63.1727 74.3951 64.735 74.3951 66.6614Z" fill="#ACB3BA"/>
<path d="M28.6369 66.6623C28.6369 71.4577 24.7476 75.3452 19.954 75.3452C15.1585 75.3452 11.271 71.4577 11.271 66.6623C11.271 61.8668 15.1585 57.9793 19.954 57.9793C24.7476 57.9793 28.6369 61.8668 28.6369 66.6623Z" fill="#2F73AB"/>
<path d="M23.441 66.6614C23.441 68.588 21.8805 70.1484 19.954 70.1484C18.0274 70.1484 16.4652 68.588 16.4652 66.6614C16.4652 64.7348 18.0275 63.1744 19.954 63.1744C21.8804 63.1744 23.441 64.735 23.441 66.6614Z" fill="#ACB3BA"/>
</g>
<defs>
<clipPath id="clip0">
<rect width="87" height="87" fill="white"/>
</clipPath>
</defs>
</svg>
