<svg width="122" height="141" viewBox="0 0 122 141" fill="none" xmlns="http://www.w3.org/2000/svg">
<path opacity="0.2" fill-rule="evenodd" clip-rule="evenodd" d="M122 3.63871C122 5.64831 120.37 7.27742 118.358 7.27742C116.347 7.27742 114.716 5.64831 114.716 3.63871C114.716 1.62911 116.347 0 118.358 0C120.37 0 122 1.62911 122 3.63871ZM118.358 26.3806C120.37 26.3806 122 24.7515 122 22.7419C122 20.7323 120.37 19.1032 118.358 19.1032C116.347 19.1032 114.716 20.7323 114.716 22.7419C114.716 24.7515 116.347 26.3806 118.358 26.3806ZM122 41.8452C122 43.8548 120.37 45.4839 118.358 45.4839C116.347 45.4839 114.716 43.8548 114.716 41.8452C114.716 39.8356 116.347 38.2065 118.358 38.2065C120.37 38.2065 122 39.8356 122 41.8452ZM118.358 64.5871C120.37 64.5871 122 62.958 122 60.9484C122 58.9388 120.37 57.3097 118.358 57.3097C116.347 57.3097 114.716 58.9388 114.716 60.9484C114.716 62.958 116.347 64.5871 118.358 64.5871ZM122 80.0516C122 82.0612 120.37 83.6903 118.358 83.6903C116.347 83.6903 114.716 82.0612 114.716 80.0516C114.716 78.042 116.347 76.4129 118.358 76.4129C120.37 76.4129 122 78.042 122 80.0516ZM118.358 102.794C120.37 102.794 122 101.164 122 99.1548C122 97.1452 120.37 95.5161 118.358 95.5161C116.347 95.5161 114.716 97.1452 114.716 99.1548C114.716 101.164 116.347 102.794 118.358 102.794ZM122 118.258C122 120.268 120.37 121.897 118.358 121.897C116.347 121.897 114.716 120.268 114.716 118.258C114.716 116.248 116.347 114.619 118.358 114.619C120.37 114.619 122 116.248 122 118.258ZM3.64179 141C5.6531 141 7.28358 139.371 7.28358 137.361C7.28358 135.352 5.6531 133.723 3.64179 133.723C1.63049 133.723 0 135.352 0 137.361C0 139.371 1.63049 141 3.64179 141ZM26.403 137.361C26.403 139.371 24.7725 141 22.7612 141C20.7499 141 19.1194 139.371 19.1194 137.361C19.1194 135.352 20.7499 133.723 22.7612 133.723C24.7725 133.723 26.403 135.352 26.403 137.361ZM41.8806 141C43.8919 141 45.5224 139.371 45.5224 137.361C45.5224 135.352 43.8919 133.723 41.8806 133.723C39.8693 133.723 38.2388 135.352 38.2388 137.361C38.2388 139.371 39.8693 141 41.8806 141ZM64.6418 137.361C64.6418 139.371 63.0113 141 61 141C58.9887 141 57.3582 139.371 57.3582 137.361C57.3582 135.352 58.9887 133.723 61 133.723C63.0113 133.723 64.6418 135.352 64.6418 137.361ZM80.1194 141C82.1307 141 83.7612 139.371 83.7612 137.361C83.7612 135.352 82.1307 133.723 80.1194 133.723C78.1081 133.723 76.4776 135.352 76.4776 137.361C76.4776 139.371 78.1081 141 80.1194 141ZM102.881 137.361C102.881 139.371 101.25 141 99.2388 141C97.2275 141 95.597 139.371 95.597 137.361C95.597 135.352 97.2275 133.723 99.2388 133.723C101.25 133.723 102.881 135.352 102.881 137.361ZM122 137.361C122 139.371 120.37 141 118.358 141C116.347 141 114.716 139.371 114.716 137.361C114.716 135.352 116.347 133.723 118.358 133.723C120.37 133.723 122 135.352 122 137.361ZM99.2388 121.897C101.25 121.897 102.881 120.268 102.881 118.258C102.881 116.248 101.25 114.619 99.2388 114.619C97.2275 114.619 95.597 116.248 95.597 118.258C95.597 120.268 97.2275 121.897 99.2388 121.897ZM83.7612 118.258C83.7612 120.268 82.1307 121.897 80.1194 121.897C78.1081 121.897 76.4776 120.268 76.4776 118.258C76.4776 116.248 78.1081 114.619 80.1194 114.619C82.1307 114.619 83.7612 116.248 83.7612 118.258ZM61 121.897C63.0113 121.897 64.6418 120.268 64.6418 118.258C64.6418 116.248 63.0113 114.619 61 114.619C58.9887 114.619 57.3582 116.248 57.3582 118.258C57.3582 120.268 58.9887 121.897 61 121.897ZM45.5224 118.258C45.5224 120.268 43.8919 121.897 41.8806 121.897C39.8693 121.897 38.2388 120.268 38.2388 118.258C38.2388 116.248 39.8693 114.619 41.8806 114.619C43.8919 114.619 45.5224 116.248 45.5224 118.258ZM22.7612 121.897C24.7725 121.897 26.403 120.268 26.403 118.258C26.403 116.248 24.7725 114.619 22.7612 114.619C20.7499 114.619 19.1194 116.248 19.1194 118.258C19.1194 120.268 20.7499 121.897 22.7612 121.897ZM7.28358 118.258C7.28358 120.268 5.6531 121.897 3.64179 121.897C1.63049 121.897 0 120.268 0 118.258C0 116.248 1.63049 114.619 3.64179 114.619C5.6531 114.619 7.28358 116.248 7.28358 118.258ZM102.881 99.1548C102.881 101.164 101.25 102.794 99.2388 102.794C97.2275 102.794 95.597 101.164 95.597 99.1548C95.597 97.1452 97.2275 95.5161 99.2388 95.5161C101.25 95.5161 102.881 97.1452 102.881 99.1548ZM80.1194 102.794C82.1307 102.794 83.7612 101.164 83.7612 99.1548C83.7612 97.1452 82.1307 95.5161 80.1194 95.5161C78.1081 95.5161 76.4776 97.1452 76.4776 99.1548C76.4776 101.164 78.1081 102.794 80.1194 102.794ZM64.6418 99.1548C64.6418 101.164 63.0113 102.794 61 102.794C58.9887 102.794 57.3582 101.164 57.3582 99.1548C57.3582 97.1452 58.9887 95.5161 61 95.5161C63.0113 95.5161 64.6418 97.1452 64.6418 99.1548ZM41.8806 102.794C43.8919 102.794 45.5224 101.164 45.5224 99.1548C45.5224 97.1452 43.8919 95.5161 41.8806 95.5161C39.8693 95.5161 38.2388 97.1452 38.2388 99.1548C38.2388 101.164 39.8693 102.794 41.8806 102.794ZM26.403 99.1548C26.403 101.164 24.7725 102.794 22.7612 102.794C20.7499 102.794 19.1194 101.164 19.1194 99.1548C19.1194 97.1452 20.7499 95.5161 22.7612 95.5161C24.7725 95.5161 26.403 97.1452 26.403 99.1548ZM3.64179 102.794C5.6531 102.794 7.28358 101.164 7.28358 99.1548C7.28358 97.1452 5.6531 95.5161 3.64179 95.5161C1.63049 95.5161 0 97.1452 0 99.1548C0 101.164 1.63049 102.794 3.64179 102.794ZM99.2388 83.6903C101.25 83.6903 102.881 82.0612 102.881 80.0516C102.881 78.042 101.25 76.4129 99.2388 76.4129C97.2275 76.4129 95.597 78.042 95.597 80.0516C95.597 82.0612 97.2275 83.6903 99.2388 83.6903ZM83.7612 80.0516C83.7612 82.0612 82.1307 83.6903 80.1194 83.6903C78.1081 83.6903 76.4776 82.0612 76.4776 80.0516C76.4776 78.042 78.1081 76.4129 80.1194 76.4129C82.1307 76.4129 83.7612 78.042 83.7612 80.0516ZM61 83.6903C63.0113 83.6903 64.6418 82.0612 64.6418 80.0516C64.6418 78.042 63.0113 76.4129 61 76.4129C58.9887 76.4129 57.3582 78.042 57.3582 80.0516C57.3582 82.0612 58.9887 83.6903 61 83.6903ZM45.5224 80.0516C45.5224 82.0612 43.8919 83.6903 41.8806 83.6903C39.8693 83.6903 38.2388 82.0612 38.2388 80.0516C38.2388 78.042 39.8693 76.4129 41.8806 76.4129C43.8919 76.4129 45.5224 78.042 45.5224 80.0516ZM22.7612 83.6903C24.7725 83.6903 26.403 82.0612 26.403 80.0516C26.403 78.042 24.7725 76.4129 22.7612 76.4129C20.7499 76.4129 19.1194 78.042 19.1194 80.0516C19.1194 82.0612 20.7499 83.6903 22.7612 83.6903ZM7.28358 80.0516C7.28358 82.0612 5.6531 83.6903 3.64179 83.6903C1.63049 83.6903 0 82.0612 0 80.0516C0 78.042 1.63049 76.4129 3.64179 76.4129C5.6531 76.4129 7.28358 78.042 7.28358 80.0516ZM102.881 60.9484C102.881 62.958 101.25 64.5871 99.2388 64.5871C97.2275 64.5871 95.597 62.958 95.597 60.9484C95.597 58.9388 97.2275 57.3097 99.2388 57.3097C101.25 57.3097 102.881 58.9388 102.881 60.9484ZM80.1194 64.5871C82.1307 64.5871 83.7612 62.958 83.7612 60.9484C83.7612 58.9388 82.1307 57.3097 80.1194 57.3097C78.1081 57.3097 76.4776 58.9388 76.4776 60.9484C76.4776 62.958 78.1081 64.5871 80.1194 64.5871ZM64.6418 60.9484C64.6418 62.958 63.0113 64.5871 61 64.5871C58.9887 64.5871 57.3582 62.958 57.3582 60.9484C57.3582 58.9388 58.9887 57.3097 61 57.3097C63.0113 57.3097 64.6418 58.9388 64.6418 60.9484ZM41.8806 64.5871C43.8919 64.5871 45.5224 62.958 45.5224 60.9484C45.5224 58.9388 43.8919 57.3097 41.8806 57.3097C39.8693 57.3097 38.2388 58.9388 38.2388 60.9484C38.2388 62.958 39.8693 64.5871 41.8806 64.5871ZM26.403 60.9484C26.403 62.958 24.7725 64.5871 22.7612 64.5871C20.7499 64.5871 19.1194 62.958 19.1194 60.9484C19.1194 58.9388 20.7499 57.3097 22.7612 57.3097C24.7725 57.3097 26.403 58.9388 26.403 60.9484ZM3.64179 64.5871C5.6531 64.5871 7.28358 62.958 7.28358 60.9484C7.28358 58.9388 5.6531 57.3097 3.64179 57.3097C1.63049 57.3097 0 58.9388 0 60.9484C0 62.958 1.63049 64.5871 3.64179 64.5871ZM99.2388 45.4839C101.25 45.4839 102.881 43.8548 102.881 41.8452C102.881 39.8356 101.25 38.2065 99.2388 38.2065C97.2275 38.2065 95.597 39.8356 95.597 41.8452C95.597 43.8548 97.2275 45.4839 99.2388 45.4839ZM83.7612 41.8452C83.7612 43.8548 82.1307 45.4839 80.1194 45.4839C78.1081 45.4839 76.4776 43.8548 76.4776 41.8452C76.4776 39.8356 78.1081 38.2065 80.1194 38.2065C82.1307 38.2065 83.7612 39.8356 83.7612 41.8452ZM61 45.4839C63.0113 45.4839 64.6418 43.8548 64.6418 41.8452C64.6418 39.8356 63.0113 38.2065 61 38.2065C58.9887 38.2065 57.3582 39.8356 57.3582 41.8452C57.3582 43.8548 58.9887 45.4839 61 45.4839ZM45.5224 41.8452C45.5224 43.8548 43.8919 45.4839 41.8806 45.4839C39.8693 45.4839 38.2388 43.8548 38.2388 41.8452C38.2388 39.8356 39.8693 38.2065 41.8806 38.2065C43.8919 38.2065 45.5224 39.8356 45.5224 41.8452ZM22.7612 45.4839C24.7725 45.4839 26.403 43.8548 26.403 41.8452C26.403 39.8356 24.7725 38.2065 22.7612 38.2065C20.7499 38.2065 19.1194 39.8356 19.1194 41.8452C19.1194 43.8548 20.7499 45.4839 22.7612 45.4839ZM7.28358 41.8452C7.28358 43.8548 5.6531 45.4839 3.64179 45.4839C1.63049 45.4839 0 43.8548 0 41.8452C0 39.8356 1.63049 38.2065 3.64179 38.2065C5.6531 38.2065 7.28358 39.8356 7.28358 41.8452ZM102.881 22.7419C102.881 24.7515 101.25 26.3806 99.2388 26.3806C97.2275 26.3806 95.597 24.7515 95.597 22.7419C95.597 20.7323 97.2275 19.1032 99.2388 19.1032C101.25 19.1032 102.881 20.7323 102.881 22.7419ZM80.1194 26.3806C82.1307 26.3806 83.7612 24.7515 83.7612 22.7419C83.7612 20.7323 82.1307 19.1032 80.1194 19.1032C78.1081 19.1032 76.4776 20.7323 76.4776 22.7419C76.4776 24.7515 78.1081 26.3806 80.1194 26.3806ZM64.6418 22.7419C64.6418 24.7515 63.0113 26.3806 61 26.3806C58.9887 26.3806 57.3582 24.7515 57.3582 22.7419C57.3582 20.7323 58.9887 19.1032 61 19.1032C63.0113 19.1032 64.6418 20.7323 64.6418 22.7419ZM41.8806 26.3806C43.8919 26.3806 45.5224 24.7515 45.5224 22.7419C45.5224 20.7323 43.8919 19.1032 41.8806 19.1032C39.8693 19.1032 38.2388 20.7323 38.2388 22.7419C38.2388 24.7515 39.8693 26.3806 41.8806 26.3806ZM26.403 22.7419C26.403 24.7515 24.7725 26.3806 22.7612 26.3806C20.7499 26.3806 19.1194 24.7515 19.1194 22.7419C19.1194 20.7323 20.7499 19.1032 22.7612 19.1032C24.7725 19.1032 26.403 20.7323 26.403 22.7419ZM3.64179 26.3806C5.6531 26.3806 7.28358 24.7515 7.28358 22.7419C7.28358 20.7323 5.6531 19.1032 3.64179 19.1032C1.63049 19.1032 0 20.7323 0 22.7419C0 24.7515 1.63049 26.3806 3.64179 26.3806ZM99.2388 7.27742C101.25 7.27742 102.881 5.64831 102.881 3.63871C102.881 1.62911 101.25 0 99.2388 0C97.2275 0 95.597 1.62911 95.597 3.63871C95.597 5.64831 97.2275 7.27742 99.2388 7.27742ZM83.7612 3.63871C83.7612 5.64831 82.1307 7.27742 80.1194 7.27742C78.1081 7.27742 76.4776 5.64831 76.4776 3.63871C76.4776 1.62911 78.1081 0 80.1194 0C82.1307 0 83.7612 1.62911 83.7612 3.63871ZM61 7.27742C63.0113 7.27742 64.6418 5.64831 64.6418 3.63871C64.6418 1.62911 63.0113 0 61 0C58.9887 0 57.3582 1.62911 57.3582 3.63871C57.3582 5.64831 58.9887 7.27742 61 7.27742ZM45.5224 3.63871C45.5224 5.64831 43.8919 7.27742 41.8806 7.27742C39.8693 7.27742 38.2388 5.64831 38.2388 3.63871C38.2388 1.62911 39.8693 0 41.8806 0C43.8919 0 45.5224 1.62911 45.5224 3.63871ZM22.7612 7.27742C24.7725 7.27742 26.403 5.64831 26.403 3.63871C26.403 1.62911 24.7725 0 22.7612 0C20.7499 0 19.1194 1.62911 19.1194 3.63871C19.1194 5.64831 20.7499 7.27742 22.7612 7.27742ZM7.28358 3.63871C7.28358 5.64831 5.6531 7.27742 3.64179 7.27742C1.63049 7.27742 0 5.64831 0 3.63871C0 1.62911 1.63049 0 3.64179 0C5.6531 0 7.28358 1.62911 7.28358 3.63871Z" fill="#1565D8"/>
</svg>
