<svg width="85" height="85" viewBox="0 0 85 85" fill="none" xmlns="http://www.w3.org/2000/svg">
<path d="M75.9688 42.1459V33.6459L66.2291 31.3438C65.5207 28.1562 64.2812 25.3229 62.6875 22.6666L67.8229 14.1666L61.802 8.14572L53.3021 13.2812C50.6459 11.6875 47.8125 10.4479 44.625 9.73964L42.1459 0H33.6459L31.3438 9.73964C28.1562 10.4479 25.3229 11.6875 22.6666 13.2812L14.1666 8.14589L8.14589 14.1666L13.2812 22.6666C11.6875 25.3229 10.4479 28.1562 9.73964 31.3438L0 33.6459V42.1459L9.73964 44.448C10.4479 47.6354 11.6875 50.4688 13.2812 53.125L8.14589 61.625L14.1668 67.8229L22.6668 62.6875C25.323 64.2812 28.1564 65.5209 31.3439 66.2291L33.6461 75.9688H42.1461L44.4482 66.2291C47.6354 65.5209 50.4688 64.2812 53.125 62.6875L61.625 67.8229L67.6459 61.802L62.5105 53.302C64.1043 50.6457 65.3439 47.8123 66.0521 44.6248L75.9688 42.1459ZM37.8959 47.1041C32.7605 47.1041 28.6875 43.0312 28.6875 37.8957C28.6875 32.7602 32.7604 28.6873 37.8959 28.6873C43.0314 28.6873 47.1043 32.7602 47.1043 37.8957C47.1041 43.0312 43.0312 47.1041 37.8959 47.1041Z" fill="#FFCE47"/>
<path d="M37.8959 19.8336C27.8021 19.8336 19.6563 27.9794 19.6563 37.8961C19.6563 47.8127 27.8021 56.1357 37.8959 56.1357C47.9896 56.1357 56.1355 47.9898 56.1355 37.8961C56.1355 27.8023 47.9896 19.8336 37.8959 19.8336ZM37.8959 47.1043C32.7605 47.1043 28.6875 43.0314 28.6875 37.8959C28.6875 32.7604 32.7604 28.6875 37.8959 28.6875C42.8543 28.6875 47.1043 32.7604 47.1043 37.8959C47.1041 43.0314 43.0313 47.1043 37.8959 47.1043Z" fill="#F7B64C"/>
<path d="M64.6354 85C75.8824 85 85 75.8824 85 64.6353C85 53.3883 75.8824 44.2707 64.6354 44.2707C53.3883 44.2707 44.2707 53.3883 44.2707 64.6353C44.2707 75.8824 53.3883 85 64.6354 85Z" fill="#2F73AB"/>
<path d="M72.4271 56.8436L61.448 67.8228L56.8437 63.2187C55.9584 62.3333 54.5416 62.3333 53.6563 63.2187C52.7709 64.104 52.7709 65.5208 53.6563 66.4062L59.8541 72.604C60.7395 73.4894 62.1562 73.4894 63.0416 72.604L75.6145 60.0312C76.4998 59.1458 76.4998 57.729 75.6145 56.8436C74.7291 55.9583 73.3125 55.9583 72.4271 56.8436Z" fill="white"/>
</svg>
